PERFORMER "Dissection"
TITLE "Storm Of The Light's Bane"
FILE "CDImage.wv" WAVE
  TRACK 01 AUDIO
    TITLE "At The Fathomless Depths (instrumental)"
    PERFORMER "Dissection"
    INDEX 01 00:00:00
  TRACK 02 AUDIO
    TITLE "Night's Blood"
    PERFORMER "Dissection"
    INDEX 01 01:56:25
  TRACK 03 AUDIO
    TITLE "Unhallowed"
    PERFORMER "Dissection"
    INDEX 01 08:36:55
  TRACK 04 AUDIO
    TITLE "Where Dead Angels Lie"
    PERFORMER "Dissection"
    INDEX 00 16:03:57
    INDEX 01 16:05:15
  TRACK 05 AUDIO
    TITLE "Retribution - Storm of the Light's Bane"
    PERFORMER "Dissection"
    INDEX 01 21:56:52
  TRACK 06 AUDIO
    TITLE "Thorns of Crimson Death"
    PERFORMER "Dissection"
    INDEX 00 26:45:35
    INDEX 01 26:47:07
  TRACK 07 AUDIO
    TITLE "Soulreaper"
    PERFORMER "Dissection"
    INDEX 01 34:53:67
  TRACK 08 AUDIO
    TITLE "No Dreams Breed In Breathless Sleep (instrumental)"
    PERFORMER "Dissection"
    INDEX 00 41:49:22
    INDEX 01 41:50:00
